<svg width="18" height="15" viewBox="0 0 18 15" fill="none" xmlns="http://www.w3.org/2000/svg">
<path d="M15.238 1.72824C14.0695 1.20048 12.8381 0.82475 11.574 0.610243C11.5624 0.607836 11.5504 0.609152 11.5396 0.614002C11.5288 0.618852 11.5199 0.626987 11.514 0.637243C11.357 0.914243 11.182 1.27524 11.059 1.56024C9.69458 1.35634 8.30743 1.35634 6.94301 1.56024C6.80627 1.24423 6.65203 0.936088 6.48101 0.637243C6.47506 0.627012 6.46612 0.618845 6.45539 0.61384C6.44467 0.608835 6.43267 0.607231 6.42101 0.609243C5.13601 0.826243 3.90601 1.20924 2.75801 1.72724C2.74818 1.73135 2.73982 1.73832 2.73401 1.74724C0.400007 5.17924 -0.239993 8.52524 0.0740067 11.8302C0.074883 11.8383 0.0773718 11.846 0.081324 11.8531C0.0852762 11.8601 0.0906104 11.8663 0.0970067 11.8712C1.4594 12.863 2.97894 13.6186 4.59201 14.1062C4.6033 14.1096 4.61534 14.1095 4.62657 14.1059C4.6378 14.1023 4.6477 14.0955 4.65501 14.0862C5.00201 13.6212 5.31101 13.1302 5.57501 12.6142C5.57859 12.6072 5.58063 12.5994 5.58099 12.5915C5.58135 12.5835 5.58002 12.5756 5.57709 12.5683C5.57416 12.5609 5.56969 12.5542 5.56399 12.5487C5.55829 12.5432 5.55148 12.5389 5.54401 12.5362C5.05951 12.354 4.59007 12.134 4.14001 11.8782C4.13182 11.8737 4.1249 11.8671 4.1199 11.8592C4.11489 11.8513 4.11195 11.8422 4.11136 11.8329C4.11076 11.8235 4.11252 11.8142 4.11648 11.8057C4.12044 11.7972 4.12646 11.7898 4.13401 11.7842C4.22856 11.7146 4.32158 11.6429 4.41301 11.5692C4.421 11.5627 4.43064 11.5585 4.44088 11.5571C4.45111 11.5556 4.46154 11.5571 4.47101 11.5612C7.41701 12.8842 10.607 12.8842 13.517 11.5612C13.5267 11.5567 13.5374 11.5549 13.548 11.5561C13.5586 11.5574 13.5687 11.5616 13.577 11.5682C13.667 11.6422 13.76 11.7142 13.855 11.7842C13.8663 11.7925 13.8741 11.8046 13.8769 11.8183C13.8796 11.832 13.8772 11.8463 13.87 11.8582C13.8654 11.8664 13.8589 11.8733 13.851 11.8782C13.4019 12.1365 12.9319 12.3566 12.446 12.5362C12.4348 12.5403 12.4251 12.5478 12.4185 12.5577C12.4118 12.5676 12.4085 12.5793 12.409 12.5912C12.409 12.5992 12.412 12.6072 12.415 12.6142C12.685 13.1292 12.995 13.6202 13.335 14.0862C13.3422 14.0954 13.3519 14.1022 13.3629 14.1058C13.374 14.1093 13.3859 14.1095 13.397 14.1062C15.0129 13.6203 16.535 12.8646 17.899 11.8712C17.9056 11.8666 17.9111 11.8607 17.9153 11.8538C17.9194 11.8469 17.9221 11.8392 17.923 11.8312C18.298 8.01024 17.294 4.69124 15.261 1.74924C15.2561 1.73973 15.2479 1.73228 15.238 1.72824ZM6.01501 9.81824C5.12801 9.81824 4.39701 9.01624 4.39701 8.03224C4.39701 7.04824 5.11401 6.24724 6.01501 6.24724C6.92201 6.24724 7.64701 7.05524 7.63301 8.03224C7.63301 9.01724 6.91601 9.81824 6.01501 9.81824ZM11.996 9.81824C11.109 9.81824 10.379 9.01624 10.379 8.03224C10.379 7.04824 11.095 6.24724 11.996 6.24724C12.904 6.24724 13.628 7.05524 13.614 8.03224C13.614 9.01724 12.904 9.81824 11.996 9.81824Z" fill="#5D11FF"/>
</svg>
