<svg width="18" height="19" viewBox="0 0 18 19" fill="none" xmlns="http://www.w3.org/2000/svg">
<g clip-path="url(#clip0_48_102)">
<path d="M9.15796 1.55743V17.7371" stroke="white" stroke-width="1.47088" stroke-linecap="round" stroke-linejoin="round"/>
<path d="M12.8348 4.50061H7.31903C6.63636 4.50061 5.98164 4.7718 5.49891 5.25453C5.01619 5.73726 4.745 6.39197 4.745 7.07465C4.745 7.75733 5.01619 8.41204 5.49891 8.89477C5.98164 9.3775 6.63636 9.64869 7.31903 9.64869H10.9962C11.6789 9.64869 12.3336 9.91988 12.8164 10.4026C13.2991 10.8853 13.5703 11.5401 13.5703 12.2227C13.5703 12.9054 13.2991 13.5601 12.8164 14.0429C12.3336 14.5256 11.6789 14.7968 10.9962 14.7968H4.745" stroke="white" stroke-width="1.47088" stroke-linecap="round" stroke-linejoin="round"/>
</g>
<defs>
<clipPath id="clip0_48_102">
<rect width="17.6506" height="17.6506" fill="white" transform="translate(0.333374 0.822632)"/>
</clipPath>
</defs>
</svg>
