<svg width="19" height="19" viewBox="0 0 19 19" fill="none" xmlns="http://www.w3.org/2000/svg">
<g clip-path="url(#clip0_48_92)">
<path d="M12.4435 3.06293H1.41187V12.6236H12.4435V3.06293Z" stroke="white" stroke-width="1.47088" stroke-linecap="round" stroke-linejoin="round"/>
<path d="M12.4459 6.74097H15.3877L17.594 8.94729V12.6245H12.4459V6.74097Z" stroke="white" stroke-width="1.47088" stroke-linecap="round" stroke-linejoin="round"/>
<path d="M4.72385 16.3008C5.73928 16.3008 6.56245 15.4776 6.56245 14.4622C6.56245 13.4468 5.73928 12.6236 4.72385 12.6236C3.70842 12.6236 2.88525 13.4468 2.88525 14.4622C2.88525 15.4776 3.70842 16.3008 4.72385 16.3008Z" stroke="white" stroke-width="1.47088" stroke-linecap="round" stroke-linejoin="round"/>
<path d="M14.2845 16.3008C15.3 16.3008 16.1231 15.4776 16.1231 14.4622C16.1231 13.4468 15.3 12.6236 14.2845 12.6236C13.2691 12.6236 12.4459 13.4468 12.4459 14.4622C12.4459 15.4776 13.2691 16.3008 14.2845 16.3008Z" stroke="white" stroke-width="1.47088" stroke-linecap="round" stroke-linejoin="round"/>
</g>
<defs>
<clipPath id="clip0_48_92">
<rect width="17.6506" height="17.6506" fill="white" transform="translate(0.678833 0.856262)"/>
</clipPath>
</defs>
</svg>
