<svg width="16" height="13" viewBox="0 0 16 13" fill="none" xmlns="http://www.w3.org/2000/svg">
<path d="M15.9495 1.65048C15.3828 1.90139 14.7819 2.06621 14.1665 2.13948C14.8151 1.75115 15.3002 1.14017 15.5315 0.42048C14.9221 0.782706 14.2551 1.03774 13.5595 1.17448C13.0917 0.675407 12.4722 0.344682 11.7972 0.233614C11.1222 0.122546 10.4294 0.237344 9.82635 0.560198C9.22326 0.883052 8.74358 1.39591 8.46173 2.01921C8.17987 2.64252 8.1116 3.34141 8.2675 4.00748C7.03272 3.94543 5.82477 3.62448 4.72204 3.06544C3.6193 2.50641 2.64642 1.72179 1.8665 0.76248C1.59984 1.22046 1.45489 1.73908 1.44543 2.26895C1.43598 2.79882 1.56235 3.32228 1.8125 3.78948C2.0535 4.23948 2.4025 4.62448 2.8275 4.90948C2.33413 4.89343 1.85173 4.75972 1.4205 4.51948V4.55948C1.42039 5.27683 1.66851 5.97212 2.12274 6.52734C2.57698 7.08255 3.20934 7.46349 3.9125 7.60548C3.45489 7.72923 2.97514 7.74735 2.5095 7.65848C2.70777 8.27553 3.09404 8.81513 3.61423 9.20173C4.13442 9.58833 4.76249 9.80258 5.4105 9.81448C4.76631 10.3207 4.02862 10.695 3.23964 10.9158C2.45067 11.1366 1.62589 11.1997 0.8125 11.1015C2.23218 12.0142 3.88476 12.4985 5.5725 12.4965C11.2855 12.4965 14.4085 7.76448 14.4085 3.66048C14.4085 3.52748 14.4055 3.39248 14.3995 3.25948C15.0072 2.82003 15.5317 2.27587 15.9485 1.65248L15.9495 1.65048Z" fill="#0295FF"/>
</svg>
